<svg viewBox="0 0 1000 250" xmlns="http://www.w3.org/2000/svg">
  <defs>
    <linearGradient id="bg" x1="0%" y1="0%" x2="100%" y2="0%">
      <stop offset="0%" stop-color="#fa709a"/>
      <stop offset="100%" stop-color="#fee140"/>
    </linearGradient>
  </defs>
  <rect width="1000" height="250" rx="16" fill="url(#bg)"/>
  <circle cx="900" cy="50" r="60" fill="white" opacity="0.1"/>
  <circle cx="80" cy="200" r="40" fill="white" opacity="0.1"/>
  
  <!-- 책 아이콘 -->
  <g transform="translate(90, 90)">
    <path d="M -38 -25 L -38 30 L 0 18 L 38 30 L 38 -25 L 0 -13 Z" fill="white"/>
    <line x1="0" y1="-13" x2="0" y2="18" stroke="#fa709a" stroke-width="2.5"/>
    <line x1="-30" y1="-15" x2="-8" y2="-9" stroke="#fa709a" stroke-width="1.5" opacity="0.6"/>
    <line x1="-30" y1="-5" x2="-8" y2="1" stroke="#fa709a" stroke-width="1.5" opacity="0.6"/>
    <line x1="-30" y1="5" x2="-8" y2="11" stroke="#fa709a" stroke-width="1.5" opacity="0.6"/>
    <line x1="8" y1="-9" x2="30" y2="-15" stroke="#fa709a" stroke-width="1.5" opacity="0.6"/>
    <line x1="8" y1="1" x2="30" y2="-5" stroke="#fa709a" stroke-width="1.5" opacity="0.6"/>
    <line x1="8" y1="11" x2="30" y2="5" stroke="#fa709a" stroke-width="1.5" opacity="0.6"/>
  </g>
  
  <!-- 학사모 -->
  <g transform="translate(195, 90)">
    <path d="M -32 -5 L 0 -20 L 32 -5 L 0 10 Z" fill="white"/>
    <path d="M -18 2 L -18 18 Q -18 24 0 24 Q 18 24 18 18 L 18 2" fill="white"/>
    <line x1="28" y1="-2" x2="28" y2="20" stroke="white" stroke-width="2"/>
    <circle cx="28" cy="22" r="3" fill="white"/>
  </g>
  
  <text x="280" y="100" font-family="-apple-system, sans-serif" font-size="42" font-weight="800" fill="white">03. Education &amp; Learning</text>
  <text x="280" y="135" font-family="sans-serif" font-size="18" fill="white" opacity="0.95">교육·학습 — 통계 튜터봇, 소크라테스식 vs 직접, 개인화 라벨링</text>
  <text x="280" y="180" font-family="sans-serif" font-size="16" font-weight="600" fill="white" opacity="0.95">H8  ·  H9  ·  H10</text>
</svg>
