<svg viewBox="0 0 800 300" xmlns="http://www.w3.org/2000/svg">
  <defs>
    <linearGradient id="bg" x1="0%" y1="0%" x2="100%" y2="100%">
      <stop offset="0%" stop-color="#38f9d7"/>
      <stop offset="100%" stop-color="#43cea2"/>
    </linearGradient>
  </defs>
  <rect width="800" height="300" rx="20" fill="url(#bg)"/>
  <circle cx="700" cy="60" r="80" fill="white" opacity="0.08"/>
  
  <!-- 뇌 일러스트 -->
  <g transform="translate(200, 160)">
    <path d="M 0 -50 C -25 -55, -50 -40, -50 -15 C -55 -10, -55 5, -50 12 C -55 22, -45 35, -30 38 C -25 48, -10 52, 0 48 C 10 52, 25 48, 30 38 C 45 35, 55 22, 50 12 C 55 5, 55 -10, 50 -15 C 50 -40, 25 -55, 0 -50 Z" fill="white"/>
    <path d="M 0 -45 L 0 45" stroke="#38f9d7" stroke-width="2" opacity="0.4"/>
    <path d="M -30 -30 Q -20 -15 -25 0 Q -30 10 -20 25" stroke="#38f9d7" stroke-width="2" fill="none" opacity="0.5"/>
    <path d="M 30 -30 Q 20 -15 25 0 Q 30 10 20 25" stroke="#38f9d7" stroke-width="2" fill="none" opacity="0.5"/>
    <!-- 반짝임 -->
    <circle cx="-15" cy="-20" r="3" fill="#43cea2"/>
    <circle cx="18" cy="-10" r="3" fill="#43cea2"/>
    <circle cx="0" cy="20" r="3" fill="#43cea2"/>
  </g>
  
  <!-- 아바타 + 말풍선 -->
  <g transform="translate(490, 160)">
    <circle cx="0" cy="-10" r="35" fill="white"/>
    <circle cx="-10" cy="-15" r="4" fill="#38f9d7"/>
    <circle cx="10" cy="-15" r="4" fill="#38f9d7"/>
    <path d="M -13 0 Q 0 12 13 0" stroke="#38f9d7" stroke-width="3" fill="none" stroke-linecap="round"/>
    
    <!-- 말풍선 -->
    <rect x="50" y="-40" width="120" height="55" rx="14" fill="white"/>
    <path d="M 50 -15 L 38 -8 L 50 -2 Z" fill="white"/>
    <text x="110" y="-20" font-family="sans-serif" font-size="13" font-weight="700" fill="#43cea2" text-anchor="middle">잘하셨어요! 👍</text>
    <text x="110" y="-2" font-family="sans-serif" font-size="11" fill="#666" text-anchor="middle">한번 더 도전!</text>
  </g>
  
  <!-- 점수 향상 표시 -->
  <g transform="translate(680, 240)">
    <text x="0" y="0" font-family="sans-serif" font-size="14" fill="white" font-weight="700" text-anchor="middle">MoCA ↑</text>
  </g>
  
  <text x="400" y="55" font-family="-apple-system, sans-serif" font-size="32" font-weight="800" fill="white" text-anchor="middle">H7</text>
  <text x="400" y="278" font-family="sans-serif" font-size="15" fill="white" opacity="0.95" text-anchor="middle">Conversational Avatar &amp; Dementia Prevention</text>
</svg>
